<svg id="Layer_1" data-name="Layer 1" xmlns="http://www.w3.org/2000/svg" width="189.1141" height="216.3738" viewBox="0 0 189.1141 216.3738"><defs><style>.cls-1{fill:#edf8fb;}.cls-1,.cls-2,.cls-3,.cls-4,.cls-5{stroke:#b0b0b0;stroke-miterlimit:10;}.cls-2{fill:#b3e0e1;}.cls-3{fill:#68c3a4;}.cls-4{fill:#2aa25f;}.cls-5{fill:#086d38;}.cls-6{font-size:8px;}.cls-6,.cls-7{fill:#231f20;font-family:EBGaramond-Regular, EB Garamond;}.cls-7{font-size:11px;}.cls-8{letter-spacing:-0.01em;}.cls-9{letter-spacing:-0.025em;}.cls-10{letter-spacing:-0.02em;}.cls-11{letter-spacing:-0.015em;}</style></defs><rect class="cls-1" x="86.6669" y="175.864" width="26.9895" height="19.0632" transform="translate(-85.234 285.5572) rotate(-90)"/><rect class="cls-2" x="86.6669" y="146.1009" width="26.9895" height="19.0632" transform="translate(-55.4709 255.7941) rotate(-90)"/><rect class="cls-3" x="86.6669" y="116.3378" width="26.9895" height="19.0632" transform="translate(-25.7078 226.031) rotate(-90)"/><rect class="cls-4" x="86.6669" y="86.5747" width="26.9895" height="19.0632" transform="translate(4.0553 196.268) rotate(-90)"/><rect class="cls-5" x="86.6669" y="56.8531" width="26.9895" height="19.0632" transform="translate(33.7769 166.5463) rotate(-90)"/><text class="cls-6" transform="translate(116.103 153.1374)">109,544-<tspan x="0" y="9.6001">162,752</tspan></text><text class="cls-6" transform="translate(115.3596 91.8356)">279,214-<tspan x="0" y="9.6001">298,849</tspan></text><text class="cls-6" transform="translate(114.9866 63.4863)">298,849-<tspan x="0" y="9.6001">420,071</tspan></text><text class="cls-6" transform="translate(115.5512 123.8671)">162,752-<tspan x="0" y="9.6001">279,214</tspan></text><text class="cls-6" transform="translate(116.6543 188.1236)">&lt;109,544</text><text class="cls-6" transform="translate(59.1948 154.9172)">349,663-<tspan x="0" y="9.6001">508,236</tspan></text><text class="cls-6" transform="translate(58.1701 93.7196)">615,948-<tspan x="0" y="9.6001">820,299</tspan></text><text class="cls-6" transform="translate(55.4486 64.427)">820,299-<tspan x="0" y="9.6001">1,323,937</tspan></text><text class="cls-6" transform="translate(59.1948 124.8078)">508,236-<tspan x="0" y="9.6001">615,948</tspan></text><text class="cls-6" transform="translate(55.4486 188.6191)">&lt;349,663</text><text class="cls-7" transform="translate(109.6937 45.7207)">D<tspan class="cls-8" x="8.2939" y="0">e</tspan><tspan x="12.4741" y="0">er Har</tspan><tspan class="cls-9" x="39.6108" y="0">v</tspan><tspan x="44.1538" y="0">est</tspan><tspan class="cls-8" x="55.4507" y="0">e</tspan><tspan x="59.6309" y="0">d</tspan></text><text class="cls-7" transform="translate(12.164 46.1605)">D<tspan class="cls-8" x="8.2939" y="0">e</tspan><tspan x="12.4741" y="0">er Li</tspan><tspan class="cls-10" x="31.7568" y="0">c</tspan><tspan x="36.0142" y="0">enses S</tspan><tspan class="cls-11" x="64.8228" y="0">o</tspan><tspan x="70.103" y="0">ld</tspan></text></svg>